<?xml version="1.0" standalone="no"?><!DOCTYPE svg PUBLIC "-//W3C//DTD SVG 1.1//EN" "http://www.w3.org/Graphics/SVG/1.1/DTD/svg11.dtd"><svg class="icon" width="32px" height="29.31px" viewBox="0 0 1118 1024" version="1.1" xmlns="http://www.w3.org/2000/svg"><path d="M656.784 181.074C619.192 75.598 523.004 0.317 410.696 0.317c-144.904 0-261.184 125.322-261.184 277.226 0 94.94 44.723 178.488 112.702 227.857C108.366 569.96 1.03 727.56 1.03 911.745h73.346c0-182.285 130.592-334.19 296.963-355.077 1.79 0 46.513-3.798 84.08 0h3.578a318.74 318.74 0 0 1 63.307 16.389c-16.387-31.624-27.132-67.097-30.77-104.862-24.629 11.712-51.983 18.217-80.838 18.217-109.125 0-196.783-93.041-196.783-208.869 0-115.827 87.658-208.869 196.783-208.869 88.507 0 162.893 61.206 187.842 146.132 17.84-13.718 37.385-25.107 58.246-33.732z" fill="#515151" /><path d="M855.754 619.486c67.98-49.37 112.703-132.917 112.703-227.857 0-153.804-118.07-279.125-262.973-279.125-144.904 0-261.185 125.321-261.185 277.226 0 94.94 44.724 178.488 112.703 227.857-153.848 64.56-261.184 222.16-261.184 406.345h73.346c0-182.286 130.592-334.19 296.963-355.077 1.79 0 46.513-3.798 84.08 0h3.578c162.793 24.684 288.018 172.791 288.018 353.178h75.136c-1.79-182.286-109.125-339.887-261.185-402.547z m-150.27-20.887c-109.125 0-196.783-93.042-196.783-208.87 0-115.826 87.658-208.868 196.783-208.868 109.125 0 196.782 93.042 196.782 208.869S814.61 598.599 705.484 598.599z" fill="#515151" /></svg>