<?xml version="1.0" standalone="no"?><!DOCTYPE svg PUBLIC "-//W3C//DTD SVG 1.1//EN" "http://www.w3.org/Graphics/SVG/1.1/DTD/svg11.dtd"><svg class="icon" width="32px" height="32.00px" viewBox="0 0 1024 1024" version="1.1" xmlns="http://www.w3.org/2000/svg"><path d="M873.5 276c44.459 0 80.5 36.041 80.5 80.5a80.5 80.5 0 0 1-24.125 57.464L836.06 506l93.815 92.036c31.736 31.135 32.224 82.102 1.089 113.839A80.5 80.5 0 0 1 873.5 736h-723c-44.459 0-80.5-36.041-80.5-80.5v-299c0-44.459 36.041-80.5 80.5-80.5h723z m0 59.8h-723c-11.228 0-20.368 8.94-20.69 20.09l-0.01 0.61v299c0 11.228 8.94 20.368 20.09 20.691l0.61 0.009h723a20.7 20.7 0 0 0 14.776-6.204c7.85-8 7.883-20.754 0.19-28.796l-0.47-0.476-93.815-92.036c-23.656-23.208-23.893-61.165-0.71-84.668l0.71-0.708 93.815-92.036A20.7 20.7 0 0 0 894.2 356.5c0-11.228-8.94-20.368-20.09-20.691l-0.61-0.009z m-166.048 60.662c16.513-0.043 29.935 13.309 29.978 29.822 0.042 16.278-12.93 29.551-29.116 29.968l-0.706 0.01-25.839 0.068-0.501 131.33c-0.064 16.512-13.501 29.848-30.015 29.785-16.277-0.063-29.467-13.12-29.78-29.309l-0.005-0.706 0.501-130.944-24.251 0.064c-16.514 0.043-29.935-13.309-29.979-29.822-0.042-16.277 12.93-29.55 29.117-29.968l0.705-0.01 109.89-0.288zM316.676 397.9c16.278 0 29.517 13.007 29.892 29.194l0.008 0.706v158.7c0 16.513-13.386 29.9-29.9 29.9-16.277 0-29.517-13.007-29.892-29.194l-0.008-0.706v-48.875H239.05V586.5c0 16.513-13.386 29.9-29.9 29.9-16.277 0-29.516-13.007-29.891-29.194l-0.008-0.706V427.8c0-16.513 13.386-29.9 29.9-29.9 16.277 0 29.517 13.007 29.892 29.194l0.008 0.706-0.001 50.025h47.726V427.8c0-16.513 13.387-29.9 29.9-29.9z m145.476 2.3c46.365 0 83.95 37.586 83.95 83.95v46c0 46.364-37.585 83.95-83.95 83.95s-83.95-37.586-83.95-83.95v-46c0-46.364 37.585-83.95 83.95-83.95z m0 59.8c-13.12 0-23.795 10.46-24.141 23.496l-0.01 0.654v46c0 13.338 10.813 24.15 24.151 24.15 13.12 0 23.795-10.46 24.141-23.496l0.01-0.654v-46c0-13.338-10.813-24.15-24.151-24.15z" fill="#C20C0C" /></svg>